<svg preserveAspectRatio="none" overflow="visible" style="display: block;" width="15.7521" height="15.8325" viewBox="0 0 15.7521 15.8325" fill="none" xmlns="http://www.w3.org/2000/svg">
<g id="Icon" clip-path="url(#clip0_0_26)">
<path id="Vector" d="M5.90706 11.2146H4.59439C3.72404 11.2146 2.88933 10.8671 2.2739 10.2485C1.65846 9.6299 1.31271 8.79093 1.31271 7.91613C1.31271 7.04134 1.65846 6.20237 2.2739 5.58379C2.88933 4.96522 3.72404 4.61771 4.59439 4.61771H5.90706" stroke="#6B6B7B" stroke-width="1.31602" stroke-linecap="round" stroke-linejoin="round"/>
<path id="Vector_2" d="M9.84508 4.61771H11.1577C12.0281 4.61771 12.8628 4.96522 13.4782 5.58379C14.0937 6.20237 14.4394 7.04134 14.4394 7.91613C14.4394 8.79093 14.0937 9.6299 13.4782 10.2485C12.8628 10.8671 12.0281 11.2146 11.1577 11.2146H9.84508" stroke="#6B6B7B" stroke-width="1.31602" stroke-linecap="round" stroke-linejoin="round"/>
<path id="Vector_3" d="M5.25073 7.91613H10.5014" stroke="#6B6B7B" stroke-width="1.31602" stroke-linecap="round" stroke-linejoin="round"/>
</g>
<defs>
<clipPath id="clip0_0_26">
<rect width="15.7521" height="15.8325" fill="white"/>
</clipPath>
</defs>
</svg>
