<svg preserveAspectRatio="none" overflow="visible" style="display: block;" width="15.7521" height="15.8325" viewBox="0 0 15.7521 15.8325" fill="none" xmlns="http://www.w3.org/2000/svg">
<g id="Icon" clip-path="url(#clip0_0_30)">
<path id="Vector" d="M9.84508 1.31936H3.93806C3.58991 1.31936 3.25603 1.45836 3.00986 1.70579C2.76368 1.95322 2.62539 2.28881 2.62539 2.63873V13.1937C2.62539 13.5436 2.76368 13.8792 3.00986 14.1266C3.25603 14.3741 3.58991 14.5131 3.93806 14.5131H11.8141C12.1622 14.5131 12.4961 14.3741 12.7423 14.1266C12.9885 13.8792 13.1268 13.5436 13.1268 13.1937V4.61779L9.84508 1.31936Z" stroke="#6B6B7B" stroke-width="1.31602" stroke-linecap="round" stroke-linejoin="round"/>
<path id="Vector_2" d="M9.18874 1.31936V3.9581C9.18874 4.30802 9.32704 4.64361 9.57321 4.89104C9.81939 5.13847 10.1533 5.27747 10.5014 5.27747H13.1268" stroke="#6B6B7B" stroke-width="1.31602" stroke-linecap="round" stroke-linejoin="round"/>
<path id="Vector_3" d="M6.5634 5.93716H5.25073" stroke="#6B6B7B" stroke-width="1.31602" stroke-linecap="round" stroke-linejoin="round"/>
<path id="Vector_4" d="M10.5014 8.5759H5.25073" stroke="#6B6B7B" stroke-width="1.31602" stroke-linecap="round" stroke-linejoin="round"/>
<path id="Vector_5" d="M10.5014 11.2146H5.25073" stroke="#6B6B7B" stroke-width="1.31602" stroke-linecap="round" stroke-linejoin="round"/>
</g>
<defs>
<clipPath id="clip0_0_30">
<rect width="15.7521" height="15.8325" fill="white"/>
</clipPath>
</defs>
</svg>
